<?xml version="1.0" encoding="UTF-8"?>
<!-- Uploaded to: SVG Repo, www.svgrepo.com, Generator: SVG Repo Mixer Tools -->
<svg fill="#e8a74f" width="800px" height="800px" version="1.1" viewBox="144 144 512 512" xmlns="http://www.w3.org/2000/svg">
 <path d="m532.29 215.15c-38.305-38.305-91.352-58.16-145.51-54.383-97.508 6.7422-173.89 91.277-173.89 192.48v146.7c0 11.113 9.0469 20.078 20.078 20.078h31.199c7.9961 0 14.523 6.5195 14.523 14.523v72.312c0 18.078 14.668 32.82 32.746 32.82h255.61c11.031 0 20.078-9.0391 20.078-20.078v-272.21c0-50.086-19.488-97.059-54.828-132.25m-81.031 122.61c-3.1875-3.1875-3.1875-8.3125 0-11.434 3.125-3.1875 8.2461-3.1875 11.434 0l7.1211 7.1211 7.0664-7.1211c3.125-3.1875 8.2461-3.1875 11.434 0 3.125 3.1172 3.125 8.2461 0 11.434l-7.0664 7.1211 7.0664 7.0664c3.125 3.1172 3.125 8.2461 0 11.434-1.5625 1.5625-3.668 2.3711-5.7188 2.3711-2.1055 0-4.1484-0.80859-5.7109-2.3711l-7.0664-7.0664-7.1211 7.0664c-1.5625 1.5625-3.668 2.3711-5.7188 2.3711-2.1055 0-4.1484-0.80859-5.7109-2.3711-3.1875-3.1875-3.1875-8.3125 0-11.434l7.1211-7.0664zm-79.98-119.48c-3.1797-3.1875-3.1797-8.3047 0-11.438 3.1328-3.1875 8.2539-3.1875 11.441 0l7.1211 7.1211 7.0625-7.1211c3.1328-3.1875 8.2539-3.1875 11.438 0 3.125 3.1328 3.125 8.2539 0 11.438l-7.0664 7.1211 7.0664 7.0625c3.125 3.1328 3.125 8.2539 0 11.441-1.5625 1.5625-3.668 2.3711-5.7188 2.3711-2.1055 0-4.1484-0.80859-5.7188-2.3711l-7.0625-7.0664-7.1211 7.0664c-1.5625 1.5625-3.668 2.3711-5.7188 2.3711-2.1055 0-4.1484-0.80859-5.7188-2.3711-3.1797-3.1875-3.1797-8.3047 0-11.441l7.1211-7.0625zm-75.016 212.35c-2.1055 0-4.1562-0.80859-5.7188-2.3711-3.1797-3.1797-3.1797-8.3047 0-11.438l7.1211-7.0625-7.1211-7.1211c-3.1797-3.1797-3.1797-8.3047 0-11.434 3.1328-3.1875 8.2539-3.1875 11.441 0l7.1133 7.1211 7.0664-7.1211c3.1328-3.1875 8.2539-3.1875 11.434 0 3.1328 3.125 3.1328 8.2539 0 11.434l-7.0625 7.1211 7.0625 7.0625c3.1328 3.1328 3.1328 8.2617 0 11.438-1.5664 1.5625-3.6641 2.3711-5.7148 2.3711-2.1055 0-4.1562-0.80859-5.7188-2.3711l-7.0664-7.0664-7.1133 7.0664c-1.5742 1.5625-3.6719 2.3711-5.7227 2.3711m33.68 107.95c-13.809 0-25.027-11.219-25.027-25.027 0-13.855 11.219-25.078 25.027-25.078s25.027 11.223 25.027 25.078c0 13.809-11.215 25.027-25.027 25.027m2.4922-231.32c0-13.863 11.219-25.078 25.027-25.078 13.801 0 25.027 11.219 25.027 25.078 0 13.809-11.227 25.027-25.027 25.027-13.812 0-25.027-11.215-25.027-25.027m124.86 273.62c-2.043 2.3203-4.8906 3.5039-7.7578 3.5039-2.4297 0-4.875-0.85156-6.8477-2.5938-1.5039-1.3281-149.36-135.15-15.812-307.39 3.4961-4.5117 9.9961-5.3359 14.516-1.8359 4.5195 3.4961 5.3359 10 1.8359 14.516-51.211 66.043-64.562 133.04-39.684 199.13 18.641 49.52 52.492 79.773 52.832 80.074 4.2891 3.7812 4.6953 10.316 0.91797 14.598m-9.0156-125.2c-13.805 0-25.027-11.219-25.027-25.027 0-13.863 11.223-25.078 25.027-25.078 13.809 0 25.027 11.219 25.027 25.078 0 13.809-11.219 25.027-25.027 25.027m61.234 56.203c3.125 3.125 3.125 8.2539 0 11.434-1.5625 1.5625-3.668 2.3789-5.7109 2.3789-2.1133 0-4.1562-0.81641-5.7188-2.3789l-7.0664-7.0664-7.1211 7.0664c-1.5625 1.5625-3.668 2.3789-5.7109 2.3789-2.1133 0-4.1562-0.81641-5.7188-2.3789-3.1875-3.1797-3.1875-8.3047 0-11.434l7.1133-7.0664-7.1133-7.1211c-3.1875-3.1797-3.1875-8.3047 0-11.434 3.125-3.1875 8.2461-3.1875 11.434 0l7.1211 7.1211 7.0664-7.1211c3.125-3.1875 8.2461-3.1875 11.434 0 3.125 3.125 3.125 8.2539 0 11.434l-7.0664 7.1211z"/>
</svg>